<svg width="40" height="40" viewBox="0 0 40 40" fill="none" xmlns="http://www.w3.org/2000/svg">
<g clip-path="url(#clip0_443_482)">
<mask id="mask0_443_482" style="mask-type:luminance" maskUnits="userSpaceOnUse" x="0" y="0" width="40" height="40">
<path d="M40 0H0V40H40V0Z" fill="white"/>
</mask>
<g mask="url(#mask0_443_482)">
<mask id="mask1_443_482" style="mask-type:luminance" maskUnits="userSpaceOnUse" x="0" y="0" width="40" height="40">
<path d="M40 0H0V40H40V0Z" fill="white"/>
</mask>
<g mask="url(#mask1_443_482)">
<path d="M24.1742 33.3333C24.1742 33.3333 12.4992 24.9316 12.4992 18.2649C12.4463 16.5734 13.0654 14.9297 14.2209 13.6932C15.3765 12.4567 16.9746 11.7281 18.6659 11.6666C19.8037 11.607 20.9337 11.8852 21.9138 12.4662C22.8939 13.0471 23.6803 13.9049 24.1742 14.9316C24.6702 13.905 25.458 13.0477 26.439 12.4669C27.4201 11.8861 28.5507 11.6077 29.6892 11.6666C33.1001 11.6666 35.8234 14.6716 35.8326 18.3016C35.8492 24.9316 24.1742 33.3333 24.1742 33.3333Z" fill="url(#paint0_linear_443_482)"/>
<path d="M24.1741 32.8157C24.9312 32.2496 27.3351 30.3995 29.7142 28.0102C33.4507 24.2577 35.4221 20.9009 35.4154 18.3028C35.4066 14.8736 32.8376 12.0837 29.6887 12.0837C27.3141 12.0837 25.4419 13.1858 24.5522 15.1074L24.1741 15.924L23.796 15.1074C22.9062 13.1858 21.0377 12.0837 18.6696 12.0837C15.4969 12.0837 12.9157 14.8569 12.9157 18.2656C12.9157 20.877 14.8896 24.2424 18.624 27.9978C21.0056 30.3928 23.4159 32.2486 24.1741 32.8157ZM24.1741 33.3337C24.1741 33.3337 12.499 24.9323 12.499 18.2656C12.499 14.6358 15.2589 11.667 18.6696 11.667C21.0785 11.667 23.1724 12.7688 24.1741 14.9323C25.1758 12.7688 27.2798 11.667 29.6887 11.667C33.0994 11.667 35.8228 14.672 35.8321 18.3018C35.8492 24.9323 24.1741 33.3337 24.1741 33.3337Z" fill="white" fill-opacity="0.3"/>
<path d="M15.8412 29.1668C15.8412 29.1668 4.16622 20.7651 4.16622 14.0984C4.11333 12.4069 4.73234 10.7632 5.88792 9.5267C7.04349 8.29024 8.64161 7.5616 10.3329 7.50009C11.4707 7.44054 12.6006 7.71873 13.5807 8.29967C14.5608 8.88062 15.3473 9.73837 15.8412 10.7651C16.3372 9.73854 17.125 8.88116 18.106 8.30036C19.0871 7.71957 20.2177 7.44118 21.3562 7.50009C24.7671 7.50009 27.4904 10.5051 27.4996 14.1351C27.5162 20.7651 15.8412 29.1668 15.8412 29.1668Z" fill="url(#paint1_linear_443_482)"/>
<path d="M15.8411 28.6492C16.5982 28.0831 19.0021 26.233 21.3812 23.8437C25.1177 20.0912 27.0891 16.7344 27.0824 14.1363C27.0736 10.7071 24.5046 7.91715 21.3557 7.91715C18.9811 7.91715 17.1089 9.01925 16.2192 10.9409L15.8411 11.7575L15.463 10.9409C14.5732 9.01925 12.7047 7.91715 10.3366 7.91715C7.16388 7.91715 4.58268 10.6904 4.58268 14.0991C4.58268 16.7105 6.5566 20.0759 10.291 23.8313C12.6726 26.2263 15.0829 28.0821 15.8411 28.6492ZM15.8411 29.1672C15.8411 29.1672 4.16602 20.7658 4.16602 14.0991C4.16602 10.4692 6.92592 7.50049 10.3366 7.50049C12.7455 7.50049 14.8394 8.60233 15.8411 10.7658C16.8428 8.60233 18.9468 7.50049 21.3557 7.50049C24.7664 7.50049 27.4898 10.5055 27.4991 14.1353C27.5162 20.7658 15.8411 29.1672 15.8411 29.1672Z" fill="white" fill-opacity="0.3"/>
</g>
</g>
</g>
<defs>
<linearGradient id="paint0_linear_443_482" x1="24.1643" y1="11.6587" x2="24.1643" y2="33.3333" gradientUnits="userSpaceOnUse">
<stop stop-color="#07B092"/>
<stop offset="1" stop-color="#02826B"/>
</linearGradient>
<linearGradient id="paint1_linear_443_482" x1="15.8313" y1="7.49219" x2="15.8313" y2="29.1668" gradientUnits="userSpaceOnUse">
<stop offset="0.001" stop-color="#02826B" stop-opacity="0.161"/>
<stop offset="1" stop-color="#02826B" stop-opacity="0.161"/>
</linearGradient>
<clipPath id="clip0_443_482">
<rect width="40" height="40" fill="white"/>
</clipPath>
</defs>
</svg>
