<svg width="17" height="17" viewBox="0 0 17 17" fill="none" xmlns="http://www.w3.org/2000/svg">
<g clip-path="url(#clip0_120_820)">
<path d="M9.52328 9.94303C9.13216 10.1919 8.68772 10.3164 8.18994 10.3164C7.69216 10.3164 7.24772 10.1919 6.85661 9.94303L0.189941 5.46303V12.663C0.189941 13.0541 0.332164 13.3919 0.616608 13.6764C0.901053 13.9608 1.25661 14.103 1.68327 14.103H14.6966C15.1233 14.103 15.4788 13.9608 15.7633 13.6764C16.0477 13.3919 16.1899 13.0541 16.1899 12.663V5.46303L16.0833 5.56969L9.52328 9.94303ZM0.829941 4.76969L7.38994 9.14303C7.63883 9.32081 7.9055 9.40969 8.18994 9.40969C8.47439 9.40969 8.74105 9.32081 8.98994 9.14303L15.5499 4.76969C15.7633 4.66303 15.9233 4.50303 16.0299 4.28969C16.1366 4.07636 16.1899 3.84525 16.1899 3.59636C16.1899 3.20525 16.0477 2.86747 15.7633 2.58303C15.4788 2.29858 15.1233 2.15636 14.6966 2.15636H1.68327C1.25661 2.15636 0.901053 2.29858 0.616608 2.58303C0.332164 2.86747 0.189941 3.20525 0.189941 3.59636C0.189941 3.84525 0.243275 4.07636 0.349941 4.28969C0.456608 4.50303 0.616608 4.66303 0.829941 4.76969Z" fill="#00856C"/>
</g>
<defs>
<clipPath id="clip0_120_820">
<rect width="16" height="16" fill="white" transform="matrix(1 0 0 -1 0.189941 16.1299)"/>
</clipPath>
</defs>
</svg>
