<svg width="17" height="17" viewBox="0 0 17 17" fill="none" xmlns="http://www.w3.org/2000/svg">
<g clip-path="url(#clip0_367_1212)">
<path d="M9.52376 10.5334C9.13265 10.7822 8.68821 10.9067 8.19043 10.9067C7.69265 10.9067 7.24821 10.7822 6.8571 10.5334L0.19043 6.05336V13.2534C0.19043 13.6445 0.332652 13.9822 0.617096 14.2667C0.901541 14.5511 1.2571 14.6934 1.68376 14.6934H14.6971C15.1238 14.6934 15.4793 14.5511 15.7638 14.2667C16.0482 13.9822 16.1904 13.6445 16.1904 13.2534V6.05336L16.0838 6.16003L9.52376 10.5334ZM0.83043 5.36003L7.39043 9.73336C7.63932 9.91114 7.90599 10 8.19043 10C8.47487 10 8.74154 9.91114 8.99043 9.73336L15.5504 5.36003C15.7638 5.25336 15.9238 5.09336 16.0304 4.88003C16.1371 4.66669 16.1904 4.43558 16.1904 4.18669C16.1904 3.79558 16.0482 3.4578 15.7638 3.17336C15.4793 2.88892 15.1238 2.74669 14.6971 2.74669H1.68376C1.2571 2.74669 0.901541 2.88892 0.617096 3.17336C0.332652 3.4578 0.19043 3.79558 0.19043 4.18669C0.19043 4.43558 0.243763 4.66669 0.35043 4.88003C0.457096 5.09336 0.617096 5.25336 0.83043 5.36003Z" fill="#02826B"/>
</g>
<defs>
<clipPath id="clip0_367_1212">
<rect width="16" height="16" fill="white" transform="matrix(1 0 0 -1 0.19043 16.7202)"/>
</clipPath>
</defs>
</svg>
