<svg width="17" height="17" viewBox="0 0 17 17" fill="none" xmlns="http://www.w3.org/2000/svg">
<path d="M6.26984 10.7467L7.01651 11.8667C7.94095 11.4756 8.76762 10.9156 9.49651 10.1867C10.2254 9.45777 10.7854 8.63111 11.1765 7.70666L10.0565 6.96C9.73651 6.74666 9.54095 6.46222 9.46984 6.10666C9.39873 5.75111 9.45206 5.43111 9.62984 5.14666L10.6965 3.38666C10.8032 3.20889 10.9543 3.07555 11.1498 2.98666C11.3454 2.89777 11.5498 2.87111 11.7632 2.90666C12.1543 2.97777 12.5276 3.12889 12.8832 3.36C13.2387 3.59111 13.5232 3.88444 13.7365 4.24C13.9498 4.59555 14.0921 4.98666 14.1632 5.41333C14.2343 5.84 14.2165 6.24889 14.1098 6.64C13.541 8.63111 12.5365 10.3467 11.0965 11.7867C9.65651 13.2267 7.94095 14.2311 5.94984 14.8C5.52318 14.9067 5.1054 14.9244 4.69651 14.8533C4.28762 14.7822 3.9054 14.64 3.54984 14.4267C3.19429 14.2133 2.90095 13.9289 2.66984 13.5733C2.43873 13.2178 2.28762 12.8444 2.21651 12.4533C2.18095 12.24 2.19873 12.0356 2.26984 11.84C2.34095 11.6444 2.48317 11.4933 2.69651 11.3867L4.45651 10.32C4.74095 10.1422 5.06095 10.0889 5.41651 10.16C5.77206 10.2311 6.05651 10.4267 6.26984 10.7467Z" fill="#00856C"/>
</svg>
