<svg width="17" height="17" viewBox="0 0 17 17" fill="none" xmlns="http://www.w3.org/2000/svg">
<path d="M6.27033 9.9869L7.017 11.1069C7.94144 10.7158 8.76811 10.1558 9.497 9.4269C10.2259 8.69801 10.7859 7.87134 11.177 6.9469L10.057 6.20023C9.737 5.9869 9.54144 5.70245 9.47033 5.3469C9.39922 4.99134 9.45255 4.67134 9.63033 4.3869L10.697 2.6269C10.8037 2.44912 10.9548 2.31579 11.1503 2.2269C11.3459 2.13801 11.5503 2.11134 11.7637 2.1469C12.1548 2.21801 12.5281 2.36912 12.8837 2.60023C13.2392 2.83134 13.5237 3.12467 13.737 3.48023C13.9503 3.83579 14.0926 4.2269 14.1637 4.65356C14.2348 5.08023 14.217 5.48912 14.1103 5.88023C13.5414 7.87134 12.537 9.5869 11.097 11.0269C9.657 12.4669 7.94144 13.4713 5.95033 14.0402C5.52366 14.1469 5.10589 14.1647 4.697 14.0936C4.28811 14.0225 3.90589 13.8802 3.55033 13.6669C3.19477 13.4536 2.90144 13.1691 2.67033 12.8136C2.43922 12.458 2.28811 12.0847 2.217 11.6936C2.18144 11.4802 2.19922 11.2758 2.27033 11.0802C2.34144 10.8847 2.48366 10.7336 2.697 10.6269L4.457 9.56023C4.74144 9.38245 5.06144 9.32912 5.417 9.40023C5.77255 9.47134 6.057 9.6669 6.27033 9.9869Z" fill="#02826B"/>
</svg>
