<svg width="64" height="64" viewBox="0 0 64 64" fill="none" xmlns="http://www.w3.org/2000/svg">
<path fill-rule="evenodd" clip-rule="evenodd" d="M11.1631 24.8109C9.98486 24.4344 7.40735 23.8729 5.31929 25.2692C3.70254 26.3501 2.24441 28.6572 2.23988 33.4494H1.13297C0.50757 33.4494 0 33.9575 0 34.5836V53.8658C0 54.4919 0.50757 55 1.13297 55H3.39891C4.30075 55 5.16521 54.6416 5.80194 54.003C6.4398 53.3655 6.79781 52.5001 6.79781 51.5973V47.6274H11.8962C12.9657 47.6274 13.9219 47.1317 14.5439 46.3571C14.6028 46.3174 14.6584 46.2709 14.7105 46.2187L27.2332 33.6819L47.3626 39.082C47.9665 39.2442 48.5874 38.8847 48.7494 38.2801L49.2309 36.4835L53.1702 37.5394C54.9841 38.026 56.8479 36.9496 57.3328 35.1337L58.5983 30.4084L63.2752 26.0461C63.8802 25.4813 64.1329 24.6317 63.9323 23.8287C63.7329 23.0245 63.1132 22.3916 62.3133 22.1772L13.6013 9.07784C13.0212 8.92132 12.4026 9.00298 11.8814 9.30356C11.3603 9.60413 10.9807 10.0998 10.8255 10.6805L8.02142 21.1541C7.86054 21.7598 8.21856 22.3814 8.82243 22.5436L11.6129 23.2922L11.1631 24.8109ZM3.39211 35.7178H2.26594V52.7315H3.39891C3.69914 52.7315 3.98805 52.6124 4.19992 52.3992C4.41291 52.1871 4.53188 51.8978 4.53188 51.5973V36.8521C4.53188 36.5515 4.41291 36.2623 4.19992 36.0502C3.98805 35.8381 3.70028 35.7178 3.40117 35.7178C3.39777 35.7178 3.39438 35.7178 3.39211 35.7178ZM6.79781 43.0904V45.3589H8.69101C8.56525 45.0039 8.49727 44.6228 8.49727 44.2247C8.49727 43.8266 8.56525 43.4454 8.69101 43.0904H6.79781ZM11.8962 43.0904C12.5216 43.0904 13.0291 43.5986 13.0291 44.2247C13.0291 44.8508 12.5216 45.3589 11.8962 45.3589C11.2708 45.3589 10.7632 44.8508 10.7632 44.2247C10.7632 43.5986 11.2708 43.0904 11.8962 43.0904ZM14.9631 42.7581L24.7055 33.0047L22.179 32.3265L13.3611 41.1543C14.0613 41.4889 14.6289 42.0571 14.9631 42.7581ZM10.5241 26.9694C9.79905 26.6983 8.01236 26.197 6.57689 27.1566C5.31816 27.9982 4.46277 29.8822 4.50469 33.6342C4.98846 33.801 5.43372 34.0766 5.80194 34.4464C6.4398 35.0838 6.79781 35.9492 6.79781 36.8521V40.8219H10.4879L19.6513 31.6482L11.0363 29.3377C10.7417 29.2583 10.4902 29.0632 10.3406 28.7967C10.1922 28.529 10.1571 28.2137 10.2432 27.9199L10.5241 26.9694ZM13.8018 23.8797L12.7459 27.4481L46.8539 36.5969L48.9771 28.6651L45.6915 27.7838L42.8285 31.0164C42.5441 31.3374 42.1023 31.4712 41.6876 31.3601L13.8018 23.8797ZM56.1998 30.6024L55.145 34.5462C54.983 35.1519 54.361 35.5114 53.7571 35.3492L49.8167 34.2921L51.166 29.2515L56.1998 30.6024ZM57.275 28.5426L61.731 24.3867C61.7332 24.3833 61.7344 24.3799 61.7344 24.3754C61.7332 24.372 61.7298 24.3686 61.7264 24.3675L13.0144 11.2681L10.5038 20.646L11.8282 21.0022C11.8407 21.0044 11.8531 21.0078 11.8656 21.0112L41.5981 28.9872L44.4611 25.7535C44.7455 25.4325 45.1873 25.2998 45.602 25.411L57.275 28.5426ZM28.3865 18.8675C29.1842 19.0807 29.6577 19.9031 29.4447 20.7004C29.2306 21.499 28.4103 21.9731 27.6127 21.7598C26.8151 21.5455 26.3415 20.7243 26.5557 19.9258C26.7687 19.1272 27.5889 18.6531 28.3865 18.8675ZM22.6084 17.317C23.406 17.5314 23.8796 18.3526 23.6655 19.1511C23.4525 19.9484 22.6311 20.4237 21.8346 20.2093C21.037 19.9961 20.5634 19.1738 20.7764 18.3752C20.9905 17.5779 21.8108 17.1026 22.6084 17.317ZM16.8303 15.7665C17.6279 15.9809 18.1014 16.802 17.8873 17.6006C17.6743 18.3991 16.8529 18.8732 16.0564 18.6599C15.2588 18.4456 14.7852 17.6244 14.9982 16.8259C15.2124 16.0274 16.0326 15.5532 16.8303 15.7665Z" fill="#02826B"/>
</svg>
