<svg width="114" height="28" viewBox="0 0 114 28" fill="none" xmlns="http://www.w3.org/2000/svg">
<g clip-path="url(#clip0_1_4)">
<path d="M32.4 8.8H35.3V20.5H32.4V8.8ZM36.4 16.1C36.4 13.2 38.2 11.5 40.9 11.5C43.6 11.5 45.4 13.2 45.4 16.1C45.4 19 43.7 20.8 40.9 20.8C38.1 20.8 36.4 19.1 36.4 16.1ZM42.6 16.1C42.6 14.5 42 13.6 41 13.6C40 13.6 39.4 14.5 39.4 16.1C39.4 17.7 40 18.6 41 18.6C42 18.6 42.6 17.8 42.6 16.1ZM46.6 21.1H49.4C49.7 21.7 50.3 22.1 51 22C52.1 22 52.7 21.4 52.7 20.5V18.9C52.2 19.9 51.1 20.6 50 20.5C47.9 20.5 46.5 18.9 46.5 16.1C46.5 13.3 47.8 11.6 50.1 11.6C51.3 11.5 52.4 12.2 52.8 13.3H52.7V11.7H55.6V20.5C55.6 22.6 53.7 23.9 51 23.9C48.4 23.9 46.8 22.8 46.6 21.1ZM52.6 16.1C52.6 14.7 52 13.8 50.9 13.8C49.8 13.8 49.2 14.7 49.2 16.1C49.2 17.5 49.8 18.3 50.9 18.3C52 18.3 52.6 17.6 52.6 16.1ZM56.6 16.1C56.6 13.2 58.4 11.5 61.1 11.5C63.8 11.5 65.6 13.2 65.6 16.1C65.6 19 63.9 20.8 61.1 20.8C58.3 20.8 56.7 19.1 56.6 16.1ZM62.8 16.1C62.8 14.5 62.2 13.6 61.2 13.6C60.2 13.6 59.6 14.5 59.6 16.1C59.6 17.7 60.2 18.6 61.2 18.6C62.2 18.6 62.8 17.8 62.8 16.1ZM66.8 9.6C66.8 8.8 67.4 8.1 68.2 8.1C69 8.1 69.7 8.7 69.7 9.5C69.7 10.3 69.1 11 68.3 11H68.2C67.5 11 66.8 10.4 66.8 9.6ZM66.8 11.7H69.7V20.6H66.8V11.7ZM80.3 16.1C80.3 19 79 20.7 76.8 20.7C75.6 20.8 74.6 20.1 74.1 19.1H74V23.5H71.1V11.7H74V13.3C74.4 12.2 75.5 11.5 76.7 11.6C79 11.6 80.3 13.2 80.3 16.1ZM77.3 16.1C77.3 14.7 76.6 13.8 75.6 13.8C74.6 13.8 73.9 14.7 73.9 16.1C73.9 17.5 74.5 18.4 75.6 18.4C76.7 18.4 77.4 17.6 77.3 16.1ZM85.2 11.5C87.6 11.5 89.1 12.6 89.1 14.5H86.5C86.5 13.9 86 13.5 85.2 13.5C84.4 13.5 84 13.7 84 14.2C84 14.7 84.3 14.8 85 14.9L86.9 15.3C88.7 15.7 89.4 16.4 89.4 17.7C89.4 19.5 87.7 20.7 85.3 20.7C82.9 20.7 81.2 19.5 81.1 17.7H83.9C84 18.4 84.5 18.7 85.3 18.7C86.1 18.7 86.5 18.4 86.5 18C86.5 17.5 86.2 17.4 85.5 17.3L83.8 16.9C82.1 16.5 81.2 15.6 81.2 14.3C81.3 12.6 82.8 11.5 85.2 11.5ZM99 20.6H96.2V18.9H96.1C95.8 20 94.7 20.8 93.5 20.7C91.8 20.8 90.4 19.4 90.3 17.7V11.7H93.2V16.8C93.2 17.8 93.7 18.4 94.6 18.4C95.4 18.4 96.1 17.7 96.1 16.9V11.7H99V20.6ZM100.4 11.7H103.2V13.4H103.3C103.6 12.3 104.7 11.5 105.8 11.5C107 11.4 108.1 12.2 108.3 13.4H108.4C108.8 12.2 109.9 11.5 111.1 11.5C112.6 11.4 114 12.6 114 14.2V20.5H111.1V15.2C111.1 14.3 110.7 13.8 109.9 13.8C109.2 13.8 108.6 14.3 108.6 15V20.5H105.8V15.2C105.8 14.3 105.4 13.8 104.6 13.8C103.9 13.8 103.3 14.4 103.3 15.1V20.5H100.4V11.7ZM26.7 9.6C26.7 4.7 22.7 0.699997 17.8 0.699997C15.3 0.699997 12.9 1.7 11.2 3.6H0V27.3H23.7V16.2C25.6 14.5 26.7 12.1 26.7 9.6ZM22.1 9.6C22.1 12 20.2 13.9 17.8 13.9C15.4 13.9 13.5 12 13.5 9.6C13.5 7.2 15.4 5.3 17.8 5.3C20.2 5.3 22.1 7.2 22.1 9.6ZM19.2 22.7H4.6V8.1H9C8.9 8.6 8.9 9.1 8.9 9.5C8.9 14.4 12.9 18.4 17.8 18.4C18.3 18.4 18.7 18.4 19.2 18.3V22.7Z" fill="black"/>
</g>
<defs>
<clipPath id="clip0_1_4">
<rect width="114" height="26.6" fill="white" transform="translate(0 0.699997)"/>
</clipPath>
</defs>
</svg>