<svg width="129" height="30" viewBox="0 0 129 30" fill="none" xmlns="http://www.w3.org/2000/svg">
<path d="M36.6632 9.13534H39.9447V22.3308H36.6632V9.13534ZM41.1895 17.3684C41.1895 14.0977 43.2263 12.1805 46.2816 12.1805C49.3368 12.1805 51.3737 14.0977 51.3737 17.3684C51.3737 20.6391 49.45 22.6692 46.2816 22.6692C43.1132 22.6692 41.1895 20.7519 41.1895 17.3684ZM48.2053 17.3684C48.2053 15.5639 47.5263 14.5489 46.3947 14.5489C45.2632 14.5489 44.5842 15.5639 44.5842 17.3684C44.5842 19.1729 45.2632 20.188 46.3947 20.188C47.5263 20.188 48.2053 19.2857 48.2053 17.3684ZM52.7316 23.0075H55.9C56.2395 23.6842 56.9184 24.1353 57.7105 24.0226C58.9553 24.0226 59.6342 23.3459 59.6342 22.3308V20.5263C59.0684 21.6541 57.8237 22.4436 56.5789 22.3308C54.2026 22.3308 52.6184 20.5263 52.6184 17.3684C52.6184 14.2105 54.0895 12.2932 56.6921 12.2932C58.05 12.1805 59.2947 12.9699 59.7474 14.2105H59.6342V12.406H62.9158V22.3308C62.9158 24.6992 60.7658 26.1654 57.7105 26.1654C54.7684 26.1654 52.9579 24.9248 52.7316 23.0075ZM59.5211 17.3684C59.5211 15.7895 58.8421 14.7744 57.5974 14.7744C56.3526 14.7744 55.6737 15.7895 55.6737 17.3684C55.6737 18.9474 56.3526 19.8496 57.5974 19.8496C58.8421 19.8496 59.5211 19.0601 59.5211 17.3684ZM64.0474 17.3684C64.0474 14.0977 66.0842 12.1805 69.1395 12.1805C72.1947 12.1805 74.2316 14.0977 74.2316 17.3684C74.2316 20.6391 72.3079 22.6692 69.1395 22.6692C65.9711 22.6692 64.1605 20.7519 64.0474 17.3684ZM71.0632 17.3684C71.0632 15.5639 70.3842 14.5489 69.2526 14.5489C68.1211 14.5489 67.4421 15.5639 67.4421 17.3684C67.4421 19.1729 68.1211 20.188 69.2526 20.188C70.3842 20.188 71.0632 19.2857 71.0632 17.3684ZM75.5895 10.0376C75.5895 9.13534 76.2684 8.34586 77.1737 8.34586C78.0789 8.34586 78.871 9.02256 78.871 9.92481C78.871 10.8271 78.1921 11.6165 77.2868 11.6165H77.1737C76.3816 11.6165 75.5895 10.9398 75.5895 10.0376ZM75.5895 12.406H78.871V22.4436H75.5895V12.406ZM90.8658 17.3684C90.8658 20.6391 89.3947 22.5564 86.9053 22.5564C85.5474 22.6692 84.4158 21.8797 83.85 20.7519H83.7368V25.7143H80.4553V12.406H83.7368V14.2105C84.1895 12.9699 85.4342 12.1805 86.7921 12.2932C89.3947 12.2932 90.8658 14.0977 90.8658 17.3684ZM87.4711 17.3684C87.4711 15.7895 86.6789 14.7744 85.5474 14.7744C84.4158 14.7744 83.6237 15.7895 83.6237 17.3684C83.6237 18.9474 84.3026 19.9624 85.5474 19.9624C86.7921 19.9624 87.5842 19.0601 87.4711 17.3684ZM96.4105 12.1805C99.1263 12.1805 100.824 13.4211 100.824 15.5639H97.8816C97.8816 14.8872 97.3158 14.4361 96.4105 14.4361C95.5053 14.4361 95.0526 14.6617 95.0526 15.2256C95.0526 15.7895 95.3921 15.9023 96.1842 16.015L98.3342 16.4662C100.371 16.9173 101.163 17.7068 101.163 19.1729C101.163 21.203 99.2395 22.5564 96.5237 22.5564C93.8079 22.5564 91.8842 21.203 91.7711 19.1729H94.9395C95.0526 19.9624 95.6184 20.3008 96.5237 20.3008C97.429 20.3008 97.8816 19.9624 97.8816 19.5113C97.8816 18.9474 97.5421 18.8346 96.75 18.7218L94.8263 18.2707C92.9026 17.8195 91.8842 16.8045 91.8842 15.3383C91.9974 13.4211 93.6947 12.1805 96.4105 12.1805ZM112.026 22.4436H108.858V20.5263H108.745C108.405 21.7669 107.161 22.6692 105.803 22.5564C103.879 22.6692 102.295 21.0902 102.182 19.1729V12.406H105.463V18.1579C105.463 19.2857 106.029 19.9624 107.047 19.9624C107.953 19.9624 108.745 19.1729 108.745 18.2707V12.406H112.026V22.4436ZM113.611 12.406H116.779V14.3233H116.892C117.232 13.0827 118.476 12.1805 119.721 12.1805C121.079 12.0677 122.324 12.9699 122.55 14.3233H122.663C123.116 12.9699 124.361 12.1805 125.718 12.1805C127.416 12.0677 129 13.4211 129 15.2256V22.3308H125.718V16.3534C125.718 15.3383 125.266 14.7744 124.361 14.7744C123.568 14.7744 122.889 15.3383 122.889 16.1278V22.3308H119.721V16.3534C119.721 15.3383 119.268 14.7744 118.363 14.7744C117.571 14.7744 116.892 15.4511 116.892 16.2406V22.3308H113.611V12.406ZM30.2132 10.0376C30.2132 4.51128 25.6868 0 20.1421 0C17.3132 0 14.5974 1.12782 12.6737 3.27068H0V30H26.8184V17.4812C28.9684 15.5639 30.2132 12.8571 30.2132 10.0376ZM25.0079 10.0376C25.0079 12.7444 22.8579 14.8872 20.1421 14.8872C17.4263 14.8872 15.2763 12.7444 15.2763 10.0376C15.2763 7.33083 17.4263 5.18797 20.1421 5.18797C22.8579 5.18797 25.0079 7.33083 25.0079 10.0376ZM21.7263 24.812H5.20526V8.34586H10.1842C10.0711 8.90977 10.0711 9.47368 10.0711 9.92481C10.0711 15.4511 14.5974 19.9624 20.1421 19.9624C20.7079 19.9624 21.1605 19.9624 21.7263 19.8496V24.812Z" fill="black"/>
</svg>
