<svg width="64" height="64" viewBox="0 0 64 64" fill="none" xmlns="http://www.w3.org/2000/svg">
<g clip-path="url(#clip0_481_517)">
<g clip-path="url(#clip1_481_517)">
<mask id="mask0_481_517" style="mask-type:luminance" maskUnits="userSpaceOnUse" x="0" y="0" width="64" height="65">
<path d="M64 0.149902H0V64.1499H64V0.149902Z" fill="white"/>
</mask>
<g mask="url(#mask0_481_517)">
<path d="M59.4303 58.2899H54.8603C53.9886 58.2873 53.1533 57.9398 52.5368 57.3234C51.9204 56.7069 51.573 55.8717 51.5703 54.9999V47.1499H62.7103V55.0099C62.7077 55.879 62.3613 56.7117 61.7467 57.3263C61.1322 57.9408 60.2994 58.2873 59.4303 58.2899ZM53.5703 49.1499V55.0099C53.5703 55.352 53.7062 55.6801 53.9481 55.9221C54.1901 56.164 54.5182 56.2999 54.8603 56.2999H59.4303C59.5992 56.2999 59.7665 56.2665 59.9225 56.2015C60.0784 56.1366 60.22 56.0414 60.339 55.9215C60.458 55.8016 60.552 55.6593 60.6158 55.5028C60.6795 55.3464 60.7116 55.1788 60.7103 55.0099V49.1499H53.5703Z" fill="#02826B"/>
<path d="M9.14004 58.2899H4.57004C3.69921 58.2873 2.86495 57.9395 2.25012 57.3228C1.63529 56.706 1.29004 55.8707 1.29004 54.9999V47.1499H12.43V55.0099C12.4248 55.8799 12.0761 56.7127 11.46 57.3269C10.8439 57.9412 10.0101 58.2873 9.14004 58.2899ZM3.29004 49.1499V55.0099C3.28872 55.1788 3.32085 55.3464 3.38459 55.5028C3.44832 55.6593 3.5424 55.8016 3.66139 55.9215C3.78038 56.0414 3.92193 56.1366 4.07788 56.2015C4.23384 56.2665 4.4011 56.2999 4.57004 56.2999H9.14004C9.48217 56.2999 9.81029 56.164 10.0522 55.9221C10.2941 55.6801 10.43 55.352 10.43 55.0099V49.1499H3.29004Z" fill="#02826B"/>
<path d="M59.43 49.15H4.57004C4.1393 49.15 3.71279 49.0652 3.31484 48.9004C2.91689 48.7355 2.55531 48.4939 2.25073 48.1894C1.94615 47.8848 1.70455 47.5232 1.53971 47.1252C1.37488 46.7273 1.29004 46.3008 1.29004 45.87V34.43C1.29269 31.7416 2.36186 29.1639 4.2629 27.2629C6.16395 25.3619 8.74156 24.2927 11.43 24.29H52.57C55.2585 24.2927 57.8361 25.3619 59.7372 27.2629C61.6382 29.1639 62.7074 31.7416 62.71 34.43V45.86C62.7114 46.2916 62.6275 46.7192 62.4632 47.1183C62.299 47.5174 62.0576 47.8802 61.7529 48.1858C61.4482 48.4915 61.0862 48.7339 60.6876 48.8994C60.289 49.0649 59.8616 49.15 59.43 49.15ZM11.43 26.3C9.27199 26.3027 7.20309 27.1611 5.67711 28.6871C4.15114 30.2131 3.29269 32.282 3.29004 34.44V45.86C3.28872 46.029 3.32085 46.1965 3.38459 46.3529C3.44832 46.5094 3.5424 46.6517 3.66139 46.7716C3.78038 46.8915 3.92193 46.9867 4.07788 47.0517C4.23384 47.1166 4.4011 47.15 4.57004 47.15H59.43C59.7695 47.15 60.0951 47.0152 60.3351 46.7751C60.5752 46.5351 60.71 46.2095 60.71 45.87V34.43C60.7074 32.272 59.8489 30.2031 58.323 28.6771C56.797 27.1511 54.7281 26.2927 52.57 26.29L11.43 26.3Z" fill="#02826B"/>
<path d="M52.5701 34.43C53.0238 34.428 53.4679 34.5609 53.8461 34.8117C54.2242 35.0626 54.5192 35.4201 54.6938 35.839C54.8684 36.2578 54.9146 36.7191 54.8265 37.1642C54.7385 37.6094 54.5202 38.0183 54.1993 38.3392C53.8784 38.6601 53.4695 38.8784 53.0243 38.9664C52.5792 39.0545 52.1179 39.0083 51.6991 38.8337C51.2802 38.6591 50.9227 38.3641 50.6718 37.986C50.421 37.6078 50.2881 37.1637 50.2901 36.71C50.2927 36.1061 50.5338 35.5277 50.9608 35.1007C51.3878 34.6736 51.9662 34.4326 52.5701 34.43Z" fill="#02826B"/>
<path d="M11.4297 34.43C11.883 34.43 12.3262 34.5645 12.703 34.8166C13.0798 35.0687 13.3733 35.4269 13.5463 35.8459C13.7193 36.265 13.7641 36.7259 13.6749 37.1704C13.5857 37.6149 13.3666 38.0229 13.0454 38.3428C12.7241 38.6626 12.3151 38.8799 11.8703 38.9672C11.4254 39.0544 10.9646 39.0076 10.5464 38.8328C10.1281 38.6579 9.77116 38.3628 9.52073 37.9849C9.27031 37.607 9.13769 37.1633 9.13967 36.71C9.13967 36.4097 9.19897 36.1124 9.31418 35.8351C9.42938 35.5578 9.59822 35.3061 9.811 35.0942C10.0238 34.8824 10.2763 34.7146 10.5541 34.6006C10.8319 34.4866 11.1294 34.4286 11.4297 34.43Z" fill="#02826B"/>
<path d="M58.5902 26.29H5.41016L12.2202 8.15C12.4564 7.52254 12.8771 6.98132 13.4269 6.59755C13.9766 6.21378 14.6297 6.00546 15.3002 6H48.7002C49.3706 6.00546 50.0237 6.21378 50.5734 6.59755C51.1232 6.98132 51.5439 7.52254 51.7802 8.15L58.5902 26.29ZM8.30016 24.29H55.7002L49.9102 8.83C49.8155 8.5859 49.6493 8.37606 49.4334 8.22797C49.2175 8.07987 48.962 8.00042 48.7002 8H15.3002C15.0397 8.00105 14.7857 8.0809 14.5715 8.22904C14.3574 8.37719 14.193 8.58669 14.1002 8.83L8.30016 24.29Z" fill="#02826B"/>
<path d="M0 18.4299H6.86V22.9999H0V18.4299Z" fill="#02826B"/>
<path d="M57.1396 18.4299H63.9996V22.9999H57.1396V18.4299Z" fill="#02826B"/>
<path d="M45.72 35.71H18.29V37.71H45.72V35.71Z" fill="#02826B"/>
</g>
</g>
</g>
<defs>
<clipPath id="clip0_481_517">
<rect width="64" height="64" fill="white"/>
</clipPath>
<clipPath id="clip1_481_517">
<rect width="64" height="52.29" fill="white" transform="translate(0 6)"/>
</clipPath>
</defs>
</svg>
