<svg width="64" height="64" viewBox="0 0 64 64" fill="none" xmlns="http://www.w3.org/2000/svg">
<g clip-path="url(#clip0_481_547)">
<path d="M62.9334 61.8666H61.8667V21.824C63.1722 20.6517 64 18.9568 64 17.0666C64 16.8565 63.9371 16.6495 63.8208 16.4746L53.1541 0.474625C52.9558 0.178125 52.6229 0 52.2666 0H11.7334C11.3771 0 11.0442 0.178125 10.8459 0.474625L0.17925 16.4746C0.062875 16.6496 0 16.8565 0 17.0666C0 18.9558 0.82775 20.6506 2.13337 21.824V61.8666H1.06662C0.47675 61.8666 0 62.3434 0 62.9333C0 63.5233 0.47675 64 1.06662 64H62.9333C63.5231 64 63.9999 63.5233 63.9999 62.9334C64 62.3435 63.5233 61.8666 62.9334 61.8666ZM12.304 2.13337H51.696L60.9408 16H3.05925L12.304 2.13337ZM50.0256 18.1334C49.5296 20.5644 47.376 22.4 44.8 22.4C42.224 22.4 40.0704 20.5643 39.5744 18.1334H50.0256ZM36.1152 18.1334C35.6385 19.9691 33.983 21.3334 32 21.3334C30.0171 21.3334 28.3616 19.9691 27.8848 18.1334H36.1152ZM24.4256 18.1334C23.9296 20.5644 21.776 22.4 19.2 22.4C16.624 22.4 14.4704 20.5643 13.9744 18.1334H24.4256ZM2.272 18.1334H10.5153C10.0385 19.9691 8.383 21.3334 6.4 21.3334C4.416 21.3334 2.74775 19.9713 2.272 18.1334ZM17.0666 61.8666H4.26662V28.8H17.0666V61.8666ZM59.7334 61.8666H19.2V50.1333H59.7334V61.8666ZM59.7334 48H19.2V28.8H59.7334V48ZM59.7334 26.6666H4.26662V23.0933C4.93537 23.33 5.65113 23.4666 6.4 23.4666C8.98775 23.4666 11.216 21.92 12.224 19.7055C13.2939 22.5215 16.0128 24.5333 19.2 24.5333C22.3873 24.5333 25.1061 22.5215 26.176 19.7055C27.184 21.9199 29.4123 23.4666 32 23.4666C34.5877 23.4666 36.816 21.92 37.824 19.7055C38.8939 22.5215 41.6127 24.5333 44.8 24.5333C47.9872 24.5333 50.7061 22.5215 51.776 19.7055C52.784 21.9199 55.0122 23.4666 57.6 23.4666C58.3487 23.4666 59.0645 23.3301 59.7334 23.0933V26.6666ZM57.6 21.3334C55.617 21.3334 53.9616 19.9691 53.4847 18.1334H61.728C61.2523 19.9713 59.584 21.3334 57.6 21.3334Z" fill="#02826B"/>
<path d="M34.8878 32.3125C34.4718 31.8965 33.7956 31.8965 33.3796 32.3125L24.8462 40.8459C24.4302 41.2619 24.4302 41.9381 24.8462 42.3541C25.2622 42.7712 25.9384 42.7712 26.3544 42.3541L34.8878 33.8207C35.3038 33.4047 35.3038 32.7285 34.8878 32.3125Z" fill="#02826B"/>
<path d="M28.4874 32.3125C28.0714 31.8965 27.3951 31.8965 26.9791 32.3125L22.7124 36.5792C22.2964 36.9952 22.2964 37.6715 22.7124 38.0875C23.1284 38.5045 23.8046 38.5045 24.2206 38.0875L28.4873 33.8209C28.9034 33.4047 28.9034 32.7285 28.4874 32.3125Z" fill="#02826B"/>
<path d="M13.8664 41.6001C13.2766 41.6001 12.7998 42.0769 12.7998 42.6667V46.9333C12.7998 47.5232 13.2766 48 13.8664 48C14.4563 48 14.9331 47.5232 14.9331 46.9333V42.6667C14.9332 42.0769 14.4563 41.6001 13.8664 41.6001Z" fill="#02826B"/>
</g>
<defs>
<clipPath id="clip0_481_547">
<rect width="64" height="64" fill="white"/>
</clipPath>
</defs>
</svg>
